<svg class="animated" id="freepik_stories-process" xmlns="http://www.w3.org/2000/svg" viewBox="0 0 500 500" version="1.1" xmlns:xlink="http://www.w3.org/1999/xlink" xmlns:svgjs="http://svgjs.com/svgjs"><style>svg#freepik_stories-process:not(.animated) .animable {opacity: 0;}svg#freepik_stories-process.animated #freepik--Shadow--inject-2 {animation: 6s Infinite  linear floating;animation-delay: 0s;}svg#freepik_stories-process.animated #freepik--Process--inject-2 {animation: 3s Infinite  linear shake;animation-delay: 0s;}svg#freepik_stories-process.animated #freepik--gear-3--inject-2 {animation: 6s Infinite  linear spin;animation-delay: 0s;}svg#freepik_stories-process.animated #freepik--gear-2--inject-2 {animation: 6s Infinite  linear spin;animation-delay: 0s;}svg#freepik_stories-process.animated #freepik--gear-1--inject-2 {animation: 6s Infinite  linear spin;animation-delay: 0s;}svg#freepik_stories-process.animated #freepik--Character--inject-2 {animation: 6s Infinite  linear floating;animation-delay: 0s;}            @keyframes floating {                0% {                    opacity: 1;                    transform: translateY(0px);                }                50% {                    transform: translateY(-10px);                }                100% {                    opacity: 1;                    transform: translateY(0px);                }            }                    @keyframes shake {                10%, 90% {                    transform: translate3d(-1px, 0, 0);                  }                  20%, 80% {                    transform: translate3d(2px, 0, 0);                  }                  30%, 50%, 70% {                    transform: translate3d(-4px, 0, 0);                  }                  40%, 60% {                    transform: translate3d(4px, 0, 0);                  }            }                 @keyframes spin {             from {                 transform: rotate(0);               }               to {                 transform: rotate(360deg);               }         }     </style><g id="freepik--background-complete--inject-2" class="animable" style="transform-origin: 250px 228.23px;"><rect x="416.78" y="398.49" width="33.12" height="0.25" style="fill: rgb(235, 235, 235); transform-origin: 433.34px 398.615px;" id="elf8gxltltlzt" class="animable"></rect><rect x="322.53" y="401.21" width="8.69" height="0.25" style="fill: rgb(235, 235, 235); transform-origin: 326.875px 401.335px;" id="elh1iq9p4yyng" class="animable"></rect><rect x="396.59" y="389.21" width="19.19" height="0.25" style="fill: rgb(235, 235, 235); transform-origin: 406.185px 389.335px;" id="els38w4sfh9tp" class="animable"></rect><rect x="52.46" y="390.89" width="43.19" height="0.25" style="fill: rgb(235, 235, 235); transform-origin: 74.055px 391.015px;" id="elffwucvrxd1i" class="animable"></rect><rect x="104.56" y="390.89" width="6.33" height="0.25" style="fill: rgb(235, 235, 235); transform-origin: 107.725px 391.015px;" id="elllvt3ex5k5e" class="animable"></rect><rect x="131.47" y="395.11" width="93.68" height="0.25" style="fill: rgb(235, 235, 235); transform-origin: 178.31px 395.235px;" id="el8vju2060i8l" class="animable"></rect><path d="M237,337.8H43.92a5.71,5.71,0,0,1-5.71-5.71V60.66A5.71,5.71,0,0,1,43.92,55H237a5.71,5.71,0,0,1,5.71,5.71V332.09A5.71,5.71,0,0,1,237,337.8ZM43.92,55.2a5.47,5.47,0,0,0-5.46,5.46V332.09a5.47,5.47,0,0,0,5.46,5.46H237a5.47,5.47,0,0,0,5.46-5.46V60.66A5.47,5.47,0,0,0,237,55.2Z" style="fill: rgb(235, 235, 235); transform-origin: 140.46px 196.4px;" id="elgh9j5ns2yki" class="animable"></path><path d="M453.31,337.8H260.21a5.72,5.72,0,0,1-5.71-5.71V60.66A5.72,5.72,0,0,1,260.21,55h193.1A5.71,5.71,0,0,1,459,60.66V332.09A5.71,5.71,0,0,1,453.31,337.8ZM260.21,55.2a5.47,5.47,0,0,0-5.46,5.46V332.09a5.47,5.47,0,0,0,5.46,5.46h193.1a5.47,5.47,0,0,0,5.46-5.46V60.66a5.47,5.47,0,0,0-5.46-5.46Z" style="fill: rgb(235, 235, 235); transform-origin: 356.75px 196.4px;" id="elf4se5qn5n8g" class="animable"></path><rect y="382.4" width="500" height="0.25" style="fill: rgb(235, 235, 235); transform-origin: 250px 382.525px;" id="elaxooxdg39su" class="animable"></rect><path d="M203.12,319.61H82.52V101.3l1.23-1.18a84.87,84.87,0,0,1,59.07-23.73h0a84.85,84.85,0,0,1,59.07,23.73l1.23,1.18Zm-112.6-8h104.6V104.74a77.38,77.38,0,0,0-104.6,0Z" style="fill: rgb(224, 224, 224); transform-origin: 142.82px 198px;" id="elp8nhbhtx3e" class="animable"></path><polygon points="196.64 140.17 196.64 134.17 145.82 134.17 145.82 83.35 139.82 83.35 139.82 134.17 89 134.17 89 140.17 139.82 140.17 139.82 194.98 89 194.98 89 200.98 139.82 200.98 139.82 255.8 89 255.8 89 261.8 139.82 261.8 139.82 312.61 145.82 312.61 145.82 261.8 196.64 261.8 196.64 255.8 145.82 255.8 145.82 200.98 196.64 200.98 196.64 194.98 145.82 194.98 145.82 140.17 196.64 140.17" style="fill: rgb(245, 245, 245); transform-origin: 142.82px 197.98px;" id="el7j44gd4z8ow" class="animable"></polygon><path d="M207.12,323.61H78.52V99.67l1.17-1.17A89.38,89.38,0,0,1,206,98.5l1.17,1.17Zm-120.6-8h112.6V103a81.37,81.37,0,0,0-112.6,0Z" style="fill: rgb(235, 235, 235); transform-origin: 142.845px 197.989px;" id="eljjpcu2u2q2" class="animable"></path><path d="M415.68,319.61H295.08V101.3l1.23-1.18a84.87,84.87,0,0,1,59.07-23.73h0a84.87,84.87,0,0,1,59.08,23.73l1.22,1.18Zm-112.6-8h104.6V104.74a77.38,77.38,0,0,0-104.6,0Z" style="fill: rgb(224, 224, 224); transform-origin: 355.38px 198px;" id="el1wn6h885yru" class="animable"></path><polygon points="409.2 140.17 409.2 134.17 358.38 134.17 358.38 83.35 352.38 83.35 352.38 134.17 301.57 134.17 301.57 140.17 352.38 140.17 352.38 194.98 301.57 194.98 301.57 200.98 352.38 200.98 352.38 255.8 301.57 255.8 301.57 261.8 352.38 261.8 352.38 312.61 358.38 312.61 358.38 261.8 409.2 261.8 409.2 255.8 358.38 255.8 358.38 200.98 409.2 200.98 409.2 194.98 358.38 194.98 358.38 140.17 409.2 140.17" style="fill: rgb(245, 245, 245); transform-origin: 355.385px 197.98px;" id="elabxd0nqcfqe" class="animable"></polygon><path d="M419.68,323.61H291.08V99.67l1.18-1.17a89.37,89.37,0,0,1,126.25,0l1.17,1.17Zm-120.6-8h112.6V103a81.37,81.37,0,0,0-112.6,0Z" style="fill: rgb(235, 235, 235); transform-origin: 355.38px 198.002px;" id="el8wmrrvicv8o" class="animable"></path><g id="el21prna5k1q5"><rect x="249.86" y="364.68" width="22.72" height="6.1" rx="1.32" style="fill: rgb(235, 235, 235); transform-origin: 261.22px 367.73px; transform: rotate(180deg);" class="animable"></rect></g><g id="elawcsewib2p"><rect x="226.03" y="364.68" width="22.72" height="6.1" rx="1.32" style="fill: rgb(245, 245, 245); transform-origin: 237.39px 367.73px; transform: rotate(180deg);" class="animable"></rect></g><g id="el5trpic70daj"><rect x="236.64" y="357.13" width="22.72" height="6.1" rx="1.32" style="fill: rgb(245, 245, 245); transform-origin: 248px 360.18px; transform: rotate(180deg);" class="animable"></rect></g><g id="el3wr9ncfg95r"><rect x="212.86" y="357.13" width="22.72" height="6.1" rx="1.32" style="fill: rgb(240, 240, 240); transform-origin: 224.22px 360.18px; transform: rotate(180deg);" class="animable"></rect></g><g id="el8947pl4ucfx"><rect x="81.19" y="360.91" width="22.72" height="6.1" rx="1.32" style="fill: rgb(240, 240, 240); transform-origin: 92.55px 363.96px; transform: rotate(180deg);" class="animable"></rect></g><g id="el9f7136gsj8p"><rect x="57.36" y="360.91" width="22.72" height="6.1" rx="1.32" style="fill: rgb(245, 245, 245); transform-origin: 68.72px 363.96px; transform: rotate(180deg);" class="animable"></rect></g><g id="elb4vj7pvqx4c"><rect x="67.98" y="353.35" width="22.72" height="6.1" rx="1.32" style="fill: rgb(245, 245, 245); transform-origin: 79.34px 356.4px; transform: rotate(180deg);" class="animable"></rect></g><g id="elukglxx7czid"><rect x="44.2" y="353.35" width="22.72" height="6.1" rx="1.32" style="fill: rgb(245, 245, 245); transform-origin: 55.56px 356.4px; transform: rotate(180deg);" class="animable"></rect></g><g id="eltbhmozmk3zk"><rect x="66.83" y="72.89" width="22.72" height="6.1" rx="1.32" style="fill: rgb(245, 245, 245); transform-origin: 78.19px 75.94px; transform: rotate(180deg);" class="animable"></rect></g><g id="eliitvtzctqgj"><rect x="77.44" y="65.33" width="22.72" height="6.1" rx="1.32" style="fill: rgb(245, 245, 245); transform-origin: 88.8px 68.38px; transform: rotate(180deg);" class="animable"></rect></g><g id="el973hzlfj3hq"><rect x="53.66" y="65.33" width="22.72" height="6.1" rx="1.32" style="fill: rgb(240, 240, 240); transform-origin: 65.02px 68.38px; transform: rotate(180deg);" class="animable"></rect></g><g id="el8ncchy5tbh"><rect x="426.82" y="79.71" width="22.72" height="6.1" rx="1.32" style="fill: rgb(240, 240, 240); transform-origin: 438.18px 82.76px; transform: rotate(180deg);" class="animable"></rect></g><g id="el2gpa56ypz3o"><rect x="413.61" y="72.16" width="22.72" height="6.1" rx="1.32" style="fill: rgb(245, 245, 245); transform-origin: 424.97px 75.21px; transform: rotate(180deg);" class="animable"></rect></g><rect x="297.03" y="323.43" width="59.83" height="59.83" style="fill: rgb(245, 245, 245); transform-origin: 326.945px 353.345px;" id="elqghulpzsith" class="animable"></rect><rect x="356.87" y="323.43" width="36.75" height="59.83" style="fill: rgb(235, 235, 235); transform-origin: 375.245px 353.345px;" id="elcpzmg74qhbp" class="animable"></rect><polygon points="371.57 323.43 371.57 346.08 372.52 345.22 374.2 346.27 375.67 345.22 377.56 346.27 379.55 345.22 380.81 346.27 382.27 345.5 382.27 323.43 371.57 323.43" style="fill: rgb(224, 224, 224); transform-origin: 376.92px 334.85px;" id="elhz4bfltp48" class="animable"></polygon><g id="elxke6i31bcm"><polygon points="371.57 323.43 371.57 346.08 372.52 345.22 374.2 346.27 375.67 345.22 377.56 346.27 379.55 345.22 380.81 346.27 382.27 345.5 382.27 323.43 371.57 323.43" style="fill: rgb(224, 224, 224); opacity: 0.7; transform-origin: 376.92px 334.85px;" class="animable"></polygon></g><rect x="377.12" y="347.64" width="35.63" height="35.63" style="fill: rgb(245, 245, 245); transform-origin: 394.935px 365.455px;" id="elr8xhildiy5j" class="animable"></rect><rect x="412.74" y="347.64" width="21.88" height="35.63" style="fill: rgb(230, 230, 230); transform-origin: 423.68px 365.455px;" id="elh87puocw29s" class="animable"></rect><polygon points="405.94 357.65 370.31 357.65 377.12 347.64 412.74 347.64 405.94 357.65" style="fill: rgb(230, 230, 230); transform-origin: 391.525px 352.645px;" id="elpl9u299f28" class="animable"></polygon><polygon points="419.19 357.65 441.07 357.65 434.63 347.64 412.74 347.64 419.19 357.65" style="fill: rgb(245, 245, 245); transform-origin: 426.905px 352.645px;" id="eluq65je2r23" class="animable"></polygon><rect x="260.58" y="347.64" width="35.63" height="35.63" style="fill: rgb(245, 245, 245); transform-origin: 278.395px 365.455px;" id="elmjn961gobb" class="animable"></rect><rect x="296.2" y="347.64" width="21.88" height="35.63" style="fill: rgb(230, 230, 230); transform-origin: 307.14px 365.455px;" id="eln110s7y6yvp" class="animable"></rect><polygon points="289.4 338.7 253.77 338.7 260.58 347.64 296.2 347.64 289.4 338.7" style="fill: rgb(230, 230, 230); transform-origin: 274.985px 343.17px;" id="elapod7teds9k" class="animable"></polygon><polygon points="302.65 338.7 324.53 338.7 318.09 347.64 296.2 347.64 302.65 338.7" style="fill: rgb(235, 235, 235); transform-origin: 310.365px 343.17px;" id="elf3msqx4iza9" class="animable"></polygon></g><g id="freepik--Shadow--inject-2" class="animable" style="transform-origin: 245.18px 412.39px;"><ellipse id="freepik--path--inject-2" cx="245.18" cy="412.39" rx="193.89" ry="11.32" style="fill: rgb(245, 245, 245); transform-origin: 245.18px 412.39px;" class="animable"></ellipse></g><g id="freepik--Process--inject-2" class="animable" style="transform-origin: 280.13px 234.31px;"><rect x="182.74" y="229.29" width="138.71" height="10.04" rx="3.05" style="fill: rgb(64, 123, 255); transform-origin: 252.095px 234.31px;" id="elgmxxr6av5xn" class="animable"></rect><g id="el90ie7wr9m6o"><rect x="182.74" y="229.29" width="138.71" height="10.04" rx="3.05" style="fill: rgb(255, 255, 255); opacity: 0.8; transform-origin: 252.095px 234.31px;" class="animable"></rect></g><path d="M318.39,244.81H185.79a8.54,8.54,0,0,1-8.53-8.53v-3.94a8.54,8.54,0,0,1,8.53-8.53h132.6a8.55,8.55,0,0,1,8.54,8.53v3.94A8.55,8.55,0,0,1,318.39,244.81Zm-132.6-19.17a6.72,6.72,0,0,0-6.71,6.7v3.94a6.71,6.71,0,0,0,6.71,6.7h132.6a6.71,6.71,0,0,0,6.71-6.7v-3.94a6.72,6.72,0,0,0-6.71-6.7Z" style="fill: rgb(38, 50, 56); transform-origin: 252.095px 234.31px;" id="el4kv67g7z18u" class="animable"></path><g id="elxc8wjnxnla"><g style="opacity: 0.3; transform-origin: 252.095px 234.31px;" class="animable"><path d="M318.39,244.81H185.79a8.54,8.54,0,0,1-8.53-8.53v-3.94a8.54,8.54,0,0,1,8.53-8.53h132.6a8.55,8.55,0,0,1,8.54,8.53v3.94A8.55,8.55,0,0,1,318.39,244.81Zm-132.6-19.17a6.72,6.72,0,0,0-6.71,6.7v3.94a6.71,6.71,0,0,0,6.71,6.7h132.6a6.71,6.71,0,0,0,6.71-6.7v-3.94a6.72,6.72,0,0,0-6.71-6.7Z" style="fill: rgb(255, 255, 255); transform-origin: 252.095px 234.31px;" id="elgj1sjmb1w2j" class="animable"></path></g></g><path d="M287.91,229.29H185.79a3.06,3.06,0,0,0-3,3.05v3.94a3.06,3.06,0,0,0,3,3.05h92.08Z" style="fill: rgb(64, 123, 255); transform-origin: 235.35px 234.31px;" id="elq4rbcybfpun" class="animable"></path><path d="M380.39,244.81H340.52a2.62,2.62,0,0,1-1.91-.82l-7.54-7.94a2.63,2.63,0,0,1,0-3.63l7.52-7.81a2.65,2.65,0,0,1,1.89-.8h39.89a2.63,2.63,0,0,1,2.63,2.63v15.75A2.62,2.62,0,0,1,380.39,244.81Z" style="fill: rgb(64, 123, 255); transform-origin: 356.672px 234.31px;" id="elfqajw79801" class="animable"></path><path d="M352.44,228.09V230l-4.65,10.63h-3.15l4.49-10.15H345v2h-2.57v-4.4Z" style="fill: rgb(255, 255, 255); transform-origin: 347.435px 234.355px;" id="elmh39wz529dk" class="animable"></path><path d="M363.07,238.24v2.36h-9.46v-1.87l4.83-4.56a5.3,5.3,0,0,0,1-1.26,2.28,2.28,0,0,0,.27-1,1.38,1.38,0,0,0-.51-1.15,2.37,2.37,0,0,0-1.5-.4,3.41,3.41,0,0,0-1.48.31,2.86,2.86,0,0,0-1.11.94L353,230.2a4.92,4.92,0,0,1,2-1.71,6.76,6.76,0,0,1,2.95-.61,6.14,6.14,0,0,1,2.44.45,3.78,3.78,0,0,1,1.63,1.29,3.29,3.29,0,0,1,.58,2,4.31,4.31,0,0,1-.43,1.91,7.67,7.67,0,0,1-1.66,2l-2.88,2.71Z" style="fill: rgb(255, 255, 255); transform-origin: 358.035px 234.239px;" id="elvo3nrg0lrn" class="animable"></path><path d="M365.1,233.91a4.06,4.06,0,0,1,0-5,3.14,3.14,0,0,1,4.48,0,4.13,4.13,0,0,1,0,5,3.14,3.14,0,0,1-4.48,0Zm3.2-1a2.61,2.61,0,0,0,.35-1.48,2.64,2.64,0,0,0-.35-1.49,1.16,1.16,0,0,0-1.91,0,3.28,3.28,0,0,0,0,3,1.16,1.16,0,0,0,1.91,0Zm6.5-4.79h2.12l-8.54,12.51h-2.13Zm-.57,12.24a2.94,2.94,0,0,1-1.1-1.21,4,4,0,0,1-.39-1.82,4.1,4.1,0,0,1,.39-1.83,2.91,2.91,0,0,1,1.1-1.2,3.08,3.08,0,0,1,1.6-.42,2.94,2.94,0,0,1,2.25.93,4.11,4.11,0,0,1,0,5,3,3,0,0,1-2.25.94A3.08,3.08,0,0,1,374.23,240.33Zm2.56-1.56a3.28,3.28,0,0,0,0-3,1.1,1.1,0,0,0-1-.51,1.13,1.13,0,0,0-.95.5,2.64,2.64,0,0,0-.35,1.49,2.61,2.61,0,0,0,.35,1.48,1.13,1.13,0,0,0,.95.5A1.1,1.1,0,0,0,376.79,238.77Z" style="fill: rgb(255, 255, 255); transform-origin: 371.583px 234.361px;" id="eliagca0trb1" class="animable"></path></g><g id="freepik--gear-3--inject-2" class="animable" style="transform-origin: 375.76px 153.145px;"><path d="M424.67,137.4l-8.75.14a45,45,0,0,0-3.92-6.77l4.5-7.51a52,52,0,0,0-7.78-7.78l-7.51,4.5a44.27,44.27,0,0,0-6.78-3.92l.15-8.76A52.36,52.36,0,0,0,384,104.45l-4.26,7.67c-1.29-.11-2.59-.18-3.91-.18s-2.62.07-3.91.18l-4.26-7.67A52.54,52.54,0,0,0,357,107.3l.15,8.76a44.17,44.17,0,0,0-6.77,3.92l-7.51-4.5a52.57,52.57,0,0,0-7.79,7.78l4.51,7.51a43.36,43.36,0,0,0-3.92,6.77l-8.76-.14A52.36,52.36,0,0,0,324,148l7.67,4.25c-.12,1.29-.19,2.6-.19,3.91s.07,2.63.19,3.91L324,164.36A52.36,52.36,0,0,0,326.89,175l8.76-.14a43.36,43.36,0,0,0,3.92,6.77l-4.51,7.51a52.57,52.57,0,0,0,7.79,7.78l7.51-4.5a44.17,44.17,0,0,0,6.77,3.92l-.15,8.75a51.91,51.91,0,0,0,10.63,2.86l4.26-7.67c1.29.11,2.59.18,3.91.18s2.62-.07,3.91-.18l4.26,7.67a51.74,51.74,0,0,0,10.63-2.86l-.15-8.75a44.27,44.27,0,0,0,6.78-3.92l7.51,4.5a52,52,0,0,0,7.78-7.78l-4.5-7.51a45,45,0,0,0,3.92-6.77l8.75.14a51.09,51.09,0,0,0,2.85-10.63l-7.66-4.26c.11-1.28.18-2.59.18-3.91s-.07-2.62-.18-3.91l7.66-4.25A51.09,51.09,0,0,0,424.67,137.4Z" style="fill: rgb(64, 123, 255); transform-origin: 375.76px 156.2px;" id="el50jxrrcjt6i" class="animable"></path><g id="elgl2jir4eyef"><path d="M424.67,137.4l-8.75.14a45,45,0,0,0-3.92-6.77l4.5-7.51a52,52,0,0,0-7.78-7.78l-7.51,4.5a44.27,44.27,0,0,0-6.78-3.92l.15-8.76A52.36,52.36,0,0,0,384,104.45l-4.26,7.67c-1.29-.11-2.59-.18-3.91-.18s-2.62.07-3.91.18l-4.26-7.67A52.54,52.54,0,0,0,357,107.3l.15,8.76a44.17,44.17,0,0,0-6.77,3.92l-7.51-4.5a52.57,52.57,0,0,0-7.79,7.78l4.51,7.51a43.36,43.36,0,0,0-3.92,6.77l-8.76-.14A52.36,52.36,0,0,0,324,148l7.67,4.25c-.12,1.29-.19,2.6-.19,3.91s.07,2.63.19,3.91L324,164.36A52.36,52.36,0,0,0,326.89,175l8.76-.14a43.36,43.36,0,0,0,3.92,6.77l-4.51,7.51a52.57,52.57,0,0,0,7.79,7.78l7.51-4.5a44.17,44.17,0,0,0,6.77,3.92l-.15,8.75a51.91,51.91,0,0,0,10.63,2.86l4.26-7.67c1.29.11,2.59.18,3.91.18s2.62-.07,3.91-.18l4.26,7.67a51.74,51.74,0,0,0,10.63-2.86l-.15-8.75a44.27,44.27,0,0,0,6.78-3.92l7.51,4.5a52,52,0,0,0,7.78-7.78l-4.5-7.51a45,45,0,0,0,3.92-6.77l8.75.14a51.09,51.09,0,0,0,2.85-10.63l-7.66-4.26c.11-1.28.18-2.59.18-3.91s-.07-2.62-.18-3.91l7.66-4.25A51.09,51.09,0,0,0,424.67,137.4Z" style="fill: rgb(255, 255, 255); opacity: 0.4; transform-origin: 375.76px 156.2px;" class="animable"></path></g><g id="eliwvo828nw9q"><circle cx="375.78" cy="156.19" r="26.26" style="opacity: 0.2; transform-origin: 375.78px 156.19px;" class="animable"></circle></g><path d="M389.75,161.65a3.67,3.67,0,0,0,0-4.89l-.07-.08,0-.05q-4.11-4.11-8.23-8.23c-3.3-3.3-8.43,1.82-5.12,5.13l2,2h-14c-4.66,0-4.67,7.25,0,7.25h14l-2,2c-3.31,3.31,1.82,8.43,5.12,5.13l8.23-8.23,0-.06Z" style="fill: rgb(64, 123, 255); transform-origin: 375.757px 159.155px;" id="eljqsxaut7pmp" class="animable"></path><g id="el1zqk9iulrz5"><path d="M389.75,161.65a3.67,3.67,0,0,0,0-4.89l-.07-.08,0-.05q-4.11-4.11-8.23-8.23c-3.3-3.3-8.43,1.82-5.12,5.13l2,2h-14c-4.66,0-4.67,7.25,0,7.25h14l-2,2c-3.31,3.31,1.82,8.43,5.12,5.13l8.23-8.23,0-.06Z" style="opacity: 0.4; transform-origin: 375.757px 159.155px;" class="animable"></path></g><path d="M389.75,158.65a3.67,3.67,0,0,0,0-4.89l-.07-.08,0-.05q-4.11-4.11-8.23-8.23c-3.3-3.3-8.43,1.82-5.12,5.13l2,2h-14c-4.66,0-4.67,7.25,0,7.25h14l-2,2c-3.31,3.31,1.82,8.43,5.12,5.13l8.23-8.23,0-.06Z" style="fill: rgb(64, 123, 255); transform-origin: 375.757px 156.155px;" id="elqfqs1as4rsp" class="animable"></path><path d="M389.16,100.77a62.56,62.56,0,0,1,6.59,2c.54.2.78-.67.24-.86a62.61,62.61,0,0,0-6.59-2c-.56-.13-.8.74-.24.87Z" style="fill: rgb(64, 123, 255); transform-origin: 392.568px 101.348px;" id="elz8u1jxe3r8d" class="animable"></path><path d="M335,116.24a58.64,58.64,0,0,1,40.79-17,.45.45,0,0,0,0-.9,59.63,59.63,0,0,0-41.43,17.3.45.45,0,0,0,.64.64Z" style="fill: rgb(64, 123, 255); transform-origin: 355.234px 107.376px;" id="elt895mdbtdrr" class="animable"></path></g><g id="freepik--gear-2--inject-2" class="animable" style="transform-origin: 275.325px 158.415px;"><path d="M315.23,166.61a40.46,40.46,0,0,0,1.14-6.36l9.85-2.53c0-1.25,0-2.49,0-3.73l-9.9-2.4a41.35,41.35,0,0,0-3.41-12.4l7.26-7.12c-.59-1.1-1.22-2.17-1.89-3.22l-9.76,2.86a41.53,41.53,0,0,0-9.15-9l2.73-9.81c-1-.65-2.14-1.25-3.24-1.83l-7,7.36a41,41,0,0,0-6.1-2.11,40.54,40.54,0,0,0-6.35-1.14l-2.54-9.85c-1.25,0-2.49,0-3.72,0l-2.41,9.9a41.24,41.24,0,0,0-12.4,3.42l-7.12-7.27c-1.1.59-2.17,1.22-3.22,1.89l2.86,9.76a41.53,41.53,0,0,0-9,9.15L232,129.42c-.65,1.05-1.25,2.14-1.83,3.24l7.36,7a40.89,40.89,0,0,0-2.11,6.09,41.74,41.74,0,0,0-1.14,6.35l-9.85,2.54c0,1.25,0,2.49,0,3.73l9.9,2.4a41.24,41.24,0,0,0,3.42,12.4l-7.26,7.12c.59,1.1,1.21,2.17,1.88,3.22l9.76-2.86a41.53,41.53,0,0,0,9.15,9l-2.73,9.81c1.05.65,2.14,1.25,3.25,1.83l7-7.36a40.89,40.89,0,0,0,6.09,2.11,40.46,40.46,0,0,0,6.36,1.14l2.53,9.85c1.25,0,2.49,0,3.73,0l2.4-9.9a41.08,41.08,0,0,0,12.4-3.42l7.12,7.27c1.1-.59,2.17-1.22,3.22-1.89l-2.86-9.76a41.31,41.31,0,0,0,9-9.15l9.81,2.73c.65-1.05,1.25-2.14,1.83-3.25l-7.36-7A40.89,40.89,0,0,0,315.23,166.61Z" style="fill: rgb(64, 123, 255); transform-origin: 275.325px 156.18px;" id="el4o6nuub866m" class="animable"></path><g id="el8xnzjvwxne7"><path d="M315.23,166.61a40.46,40.46,0,0,0,1.14-6.36l9.85-2.53c0-1.25,0-2.49,0-3.73l-9.9-2.4a41.35,41.35,0,0,0-3.41-12.4l7.26-7.12c-.59-1.1-1.22-2.17-1.89-3.22l-9.76,2.86a41.53,41.53,0,0,0-9.15-9l2.73-9.81c-1-.65-2.14-1.25-3.24-1.83l-7,7.36a41,41,0,0,0-6.1-2.11,40.54,40.54,0,0,0-6.35-1.14l-2.54-9.85c-1.25,0-2.49,0-3.72,0l-2.41,9.9a41.24,41.24,0,0,0-12.4,3.42l-7.12-7.27c-1.1.59-2.17,1.22-3.22,1.89l2.86,9.76a41.53,41.53,0,0,0-9,9.15L232,129.42c-.65,1.05-1.25,2.14-1.83,3.24l7.36,7a40.89,40.89,0,0,0-2.11,6.09,41.74,41.74,0,0,0-1.14,6.35l-9.85,2.54c0,1.25,0,2.49,0,3.73l9.9,2.4a41.24,41.24,0,0,0,3.42,12.4l-7.26,7.12c.59,1.1,1.21,2.17,1.88,3.22l9.76-2.86a41.53,41.53,0,0,0,9.15,9l-2.73,9.81c1.05.65,2.14,1.25,3.25,1.83l7-7.36a40.89,40.89,0,0,0,6.09,2.11,40.46,40.46,0,0,0,6.36,1.14l2.53,9.85c1.25,0,2.49,0,3.73,0l2.4-9.9a41.08,41.08,0,0,0,12.4-3.42l7.12,7.27c1.1-.59,2.17-1.22,3.22-1.89l-2.86-9.76a41.31,41.31,0,0,0,9-9.15l9.81,2.73c.65-1.05,1.25-2.14,1.83-3.25l-7.36-7A40.89,40.89,0,0,0,315.23,166.61Z" style="fill: rgb(255, 255, 255); opacity: 0.2; transform-origin: 275.325px 156.18px;" class="animable"></path></g><g id="elezwrw5fa4y"><circle cx="275.32" cy="156.19" r="26.15" style="opacity: 0.3; transform-origin: 275.32px 156.19px;" class="animable"></circle></g><path d="M287.89,161.25a3.3,3.3,0,0,0,0-4.4l-.06-.07,0,0-7.41-7.41c-3-3-7.58,1.64-4.61,4.61.61.62,1.23,1.23,1.84,1.84H265.05c-4.2,0-4.21,6.53,0,6.53h12.58c-.61.61-1.23,1.22-1.84,1.84-3,3,1.64,7.58,4.61,4.61l7.41-7.41a.1.1,0,0,0,0,0Z" style="fill: rgb(64, 123, 255); transform-origin: 275.313px 159.081px;" id="eli395q26i24n" class="animable"></path><g id="elmxekkoqazap"><path d="M287.89,161.25a3.3,3.3,0,0,0,0-4.4l-.06-.07,0,0-7.41-7.41c-3-3-7.58,1.64-4.61,4.61.61.62,1.23,1.23,1.84,1.84H265.05c-4.2,0-4.21,6.53,0,6.53h12.58c-.61.61-1.23,1.22-1.84,1.84-3,3,1.64,7.58,4.61,4.61l7.41-7.41a.1.1,0,0,0,0,0Z" style="opacity: 0.4; transform-origin: 275.313px 159.081px;" class="animable"></path></g><path d="M287.89,158.55a3.3,3.3,0,0,0,0-4.4l-.06-.07,0,0-7.41-7.41c-3-3-7.58,1.64-4.61,4.61.61.62,1.23,1.23,1.84,1.84H265.05c-4.2,0-4.21,6.53,0,6.53h12.58c-.61.61-1.23,1.22-1.84,1.84-3,3,1.64,7.58,4.61,4.61l7.41-7.41a.1.1,0,0,0,0-.05Z" style="fill: rgb(64, 123, 255); transform-origin: 275.313px 156.381px;" id="el3hncwsmj9ld" class="animable"></path><path d="M275.32,210.59A55.42,55.42,0,0,1,239.47,197c-.44-.38-1.08.26-.64.64a56.43,56.43,0,0,0,36.49,13.86.45.45,0,0,0,0-.9Z" style="fill: rgb(64, 123, 255); transform-origin: 257.225px 204.192px;" id="el7o6bejibuo9" class="animable"></path><path d="M290.9,208.31a56.42,56.42,0,0,1-10.13,2c-.57.06-.57,1,0,.9a58.18,58.18,0,0,0,10.37-2,.45.45,0,0,0-.24-.87Z" style="fill: rgb(64, 123, 255); transform-origin: 285.906px 209.764px;" id="elfu9r1zphe9t" class="animable"></path></g><g id="freepik--gear-1--inject-2" class="animable" style="transform-origin: 179.53px 154.055px;"><path d="M221.92,139.91l-7.59.13a39.27,39.27,0,0,0-3.39-5.87l3.9-6.5a46.25,46.25,0,0,0-6.74-6.75l-6.51,3.91a37.54,37.54,0,0,0-5.87-3.4l.13-7.58a45,45,0,0,0-9.21-2.47L183,118c-1.12-.1-2.25-.16-3.39-.16s-2.27.06-3.39.16l-3.69-6.64a44.88,44.88,0,0,0-9.2,2.47l.12,7.58a37.9,37.9,0,0,0-5.86,3.4L151,120.92a45.28,45.28,0,0,0-6.74,6.75l3.9,6.5a38.47,38.47,0,0,0-3.4,5.87l-7.58-.13a45.14,45.14,0,0,0-2.47,9.21l6.64,3.69c-.1,1.11-.16,2.24-.16,3.38s.06,2.27.16,3.39l-6.64,3.69a45.14,45.14,0,0,0,2.47,9.21l7.58-.13a38.47,38.47,0,0,0,3.4,5.87l-3.9,6.5a44.74,44.74,0,0,0,6.74,6.74l6.51-3.9a37.9,37.9,0,0,0,5.86,3.4l-.12,7.58a44.88,44.88,0,0,0,9.2,2.47l3.69-6.64c1.12.1,2.25.16,3.39.16s2.27-.06,3.39-.16l3.68,6.64a45,45,0,0,0,9.21-2.47l-.13-7.58a37.54,37.54,0,0,0,5.87-3.4l6.51,3.9a45.69,45.69,0,0,0,6.74-6.74l-3.9-6.5a39.27,39.27,0,0,0,3.39-5.87l7.59.13a45.8,45.8,0,0,0,2.47-9.21l-6.64-3.69c.09-1.12.15-2.24.15-3.39s-.06-2.27-.15-3.38l6.64-3.69A45.8,45.8,0,0,0,221.92,139.91Z" style="fill: rgb(64, 123, 255); transform-origin: 179.53px 156.185px;" id="elx11as6ppmmb" class="animable"></path><g id="elx3ghvk8n5s9"><path d="M221.92,139.91l-7.59.13a39.27,39.27,0,0,0-3.39-5.87l3.9-6.5a46.25,46.25,0,0,0-6.74-6.75l-6.51,3.91a37.54,37.54,0,0,0-5.87-3.4l.13-7.58a45,45,0,0,0-9.21-2.47L183,118c-1.12-.1-2.25-.16-3.39-.16s-2.27.06-3.39.16l-3.69-6.64a44.88,44.88,0,0,0-9.2,2.47l.12,7.58a37.9,37.9,0,0,0-5.86,3.4L151,120.92a45.28,45.28,0,0,0-6.74,6.75l3.9,6.5a38.47,38.47,0,0,0-3.4,5.87l-7.58-.13a45.14,45.14,0,0,0-2.47,9.21l6.64,3.69c-.1,1.11-.16,2.24-.16,3.38s.06,2.27.16,3.39l-6.64,3.69a45.14,45.14,0,0,0,2.47,9.21l7.58-.13a38.47,38.47,0,0,0,3.4,5.87l-3.9,6.5a44.74,44.74,0,0,0,6.74,6.74l6.51-3.9a37.9,37.9,0,0,0,5.86,3.4l-.12,7.58a44.88,44.88,0,0,0,9.2,2.47l3.69-6.64c1.12.1,2.25.16,3.39.16s2.27-.06,3.39-.16l3.68,6.64a45,45,0,0,0,9.21-2.47l-.13-7.58a37.54,37.54,0,0,0,5.87-3.4l6.51,3.9a45.69,45.69,0,0,0,6.74-6.74l-3.9-6.5a39.27,39.27,0,0,0,3.39-5.87l7.59.13a45.8,45.8,0,0,0,2.47-9.21l-6.64-3.69c.09-1.12.15-2.24.15-3.39s-.06-2.27-.15-3.38l6.64-3.69A45.8,45.8,0,0,0,221.92,139.91Z" style="fill: rgb(255, 255, 255); opacity: 0.3; transform-origin: 179.53px 156.185px;" class="animable"></path></g><g id="elp4x3aasu57"><circle cx="179.57" cy="156.19" r="31.2" style="opacity: 0.4; transform-origin: 179.57px 156.19px;" class="animable"></circle></g><path d="M190.12,160.86a2.93,2.93,0,0,0,0-3.91l0-.07,0,0-6.59-6.58c-2.64-2.64-6.74,1.46-4.1,4.1L181,156H169.82c-3.74,0-3.74,5.8,0,5.8H181l-1.64,1.64c-2.64,2.64,1.46,6.74,4.1,4.1l6.59-6.59,0,0Z" style="fill: rgb(64, 123, 255); transform-origin: 178.941px 158.92px;" id="el9mpq0x681w" class="animable"></path><g id="elz8kai6p2uxd"><path d="M190.12,160.86a2.93,2.93,0,0,0,0-3.91l0-.07,0,0-6.59-6.58c-2.64-2.64-6.74,1.46-4.1,4.1L181,156H169.82c-3.74,0-3.74,5.8,0,5.8H181l-1.64,1.64c-2.64,2.64,1.46,6.74,4.1,4.1l6.59-6.59,0,0Z" style="opacity: 0.4; transform-origin: 178.941px 158.92px;" class="animable"></path></g><path d="M190.12,158.46a2.93,2.93,0,0,0,0-3.91l0-.07,0,0-6.59-6.58c-2.64-2.64-6.74,1.46-4.1,4.1l1.64,1.63H169.82c-3.74,0-3.74,5.8,0,5.8H181L179.36,161c-2.64,2.64,1.46,6.74,4.1,4.1l6.59-6.59,0,0Z" style="fill: rgb(64, 123, 255); transform-origin: 178.941px 156.5px;" id="el4lkmcgnf3w" class="animable"></path><path d="M140.13,128.23A49.57,49.57,0,0,1,179.57,108a.45.45,0,0,0,0-.9,50.49,50.49,0,0,0-40.21,20.67c-.35.46.43.91.77.45Z" style="fill: rgb(64, 123, 255); transform-origin: 159.646px 117.756px;" id="elrqbsiadm4bo" class="animable"></path><path d="M185.93,108.42a51.92,51.92,0,0,1,6.2,1.24c.56.14.8-.73.24-.87a50,50,0,0,0-6.2-1.23c-.56-.08-.81.79-.24.86Z" style="fill: rgb(64, 123, 255); transform-origin: 189.148px 108.615px;" id="elgqx9tqjte1" class="animable"></path></g><g id="freepik--Character--inject-2" class="animable" style="transform-origin: 141.534px 284.523px;"><path d="M150.62,204s9.7,20.24,13.94,26.08c3.67,5.07,17.15,17.54,17.15,17.54l3.72-.4a2.85,2.85,0,0,1,2.85,1.53l.42.81a2.85,2.85,0,0,0,.68.86l.66.57a2.85,2.85,0,0,1,.72,3.41l-.51,1a2.84,2.84,0,0,1-2,1.56l-4,.82a2.86,2.86,0,0,1-2.77-1l-3.4-4.11s-17.94-13.15-22.54-18.88c-3.71-4.62-11-21-11-21Z" style="fill: rgb(206, 122, 99); transform-origin: 167.792px 230.917px;" id="eldlqa7t4ug6k" class="animable"></path><path d="M202.92,303.94a28.57,28.57,0,1,0-57.14,0Z" style="fill: rgb(64, 123, 255); transform-origin: 174.35px 289.655px;" id="elqqaoy6i77n" class="animable"></path><g id="el3n2qr4jmklv"><path d="M202.92,303.94a28.57,28.57,0,1,0-57.14,0Z" style="fill: rgb(255, 255, 255); opacity: 0.5; transform-origin: 174.35px 289.655px;" class="animable"></path></g><g id="elmjqyrgcjf2f"><g style="opacity: 0.3; transform-origin: 174.348px 286.509px;" class="animable"><path d="M195.9,294.71a2.26,2.26,0,0,1-2.88-1,21.29,21.29,0,0,0-37.34,0,2.27,2.27,0,0,1-2.88,1h0a2.24,2.24,0,0,1-1.11-3.11,25.79,25.79,0,0,1,45.32,0,2.25,2.25,0,0,1-1.11,3.11Z" id="elb77g65yv4vq" class="animable" style="transform-origin: 174.348px 286.509px;"></path></g></g><path d="M198.05,219.37,179,283.15a21.53,21.53,0,0,1,2.87.85q7.94-26.55,15.86-53.1l3.21-10.73C201.5,218.31,198.6,217.52,198.05,219.37Z" style="fill: rgb(38, 50, 56); transform-origin: 190.006px 251.158px;" id="elsd3nei2ci3s" class="animable"></path><g id="elrn22yfeepw9"><g style="opacity: 0.5; transform-origin: 190.006px 251.158px;" class="animable"><path d="M198.05,219.37,179,283.15a21.53,21.53,0,0,1,2.87.85q7.94-26.55,15.86-53.1l3.21-10.73C201.5,218.31,198.6,217.52,198.05,219.37Z" style="fill: rgb(255, 255, 255); transform-origin: 190.006px 251.158px;" id="el7x4908yebyc" class="animable"></path></g></g><path d="M187.8,266.79q6.93-23.22,13.87-46.42c.83-2.78-3.52-4-4.34-1.2q-6.95,23.21-13.87,46.42c-.83,2.78,3.51,4,4.34,1.2Z" style="fill: rgb(38, 50, 56); transform-origin: 192.565px 242.98px;" id="elfpva27qll08" class="animable"></path><path d="M143.26,303.94h62.27a7.87,7.87,0,0,1,7.87,7.87v96.51a0,0,0,0,1,0,0h-78a0,0,0,0,1,0,0V311.81A7.87,7.87,0,0,1,143.26,303.94Z" style="fill: rgb(64, 123, 255); transform-origin: 174.4px 356.13px;" id="eljdf3t80h6qm" class="animable"></path><g id="eliefrkzsc2sf"><path d="M143.26,303.94h62.27a7.87,7.87,0,0,1,7.87,7.87v96.51a0,0,0,0,1,0,0h-78a0,0,0,0,1,0,0V311.81A7.87,7.87,0,0,1,143.26,303.94Z" style="fill: rgb(255, 255, 255); opacity: 0.7; transform-origin: 174.4px 356.13px;" class="animable"></path></g><polygon points="176.39 386.17 181.39 405.17 189.82 402.83 186.22 382.5 176.39 386.17" style="fill: rgb(206, 122, 99); transform-origin: 183.105px 393.835px;" id="elwklm7ht92m" class="animable"></polygon><path d="M191.47,400.79a.25.25,0,0,1-.22-.13.22.22,0,0,1,.05-.25c.11-.12,2.74-2.74,4.34-2.74a1.16,1.16,0,0,1,.8.31.83.83,0,0,1,.27.92c-.24.58-1.33,1.09-2.44,1.39A16.6,16.6,0,0,1,191.47,400.79Zm.61-.47c1.72-.25,4-.88,4.22-1.57,0-.09.06-.23-.17-.45a.61.61,0,0,0-.49-.19,1.42,1.42,0,0,0-.42.06A10.09,10.09,0,0,0,192.08,400.32Z" style="fill: rgb(64, 123, 255); transform-origin: 193.993px 399.23px;" id="elya7he70q8z" class="animable"></path><path d="M191.36,400.8a.19.19,0,0,1-.15-.16c0-.12-.44-2.59.45-3.83a1.65,1.65,0,0,1,1.07-.69c.6-.1.86.15,1,.39.47.95-1.15,3.47-2.09,4.23a.12.12,0,0,1-.09,0A.17.17,0,0,1,191.36,400.8Zm1.34-4.24a1.16,1.16,0,0,0-.66.47,5.2,5.2,0,0,0-.44,3.06c.93-1,1.93-2.85,1.71-3.44,0,0-.1-.2-.49-.13l-.12,0Z" style="fill: rgb(64, 123, 255); transform-origin: 192.457px 398.453px;" id="el79ogqhdwbn7" class="animable"></path><path d="M190.22,399.78l-9.74,2.66a.81.81,0,0,0-.6.82l.4,8.41a1.34,1.34,0,0,0,1.4,1.29.86.86,0,0,0,.28,0c3.5-1,6.57-2.06,10.95-3.25,5.16-1.4,4-.43,10.11-2,3.66-.95,3.2-5.29,1.6-5.07-7.34,1-8.66-.9-12.09-2.69A3.23,3.23,0,0,0,190.22,399.78Z" style="fill: rgb(38, 50, 56); transform-origin: 192.848px 406.307px;" id="elgbb611l1k6h" class="animable"></path><polygon points="82.97 381.53 74.93 399.46 82.96 402.94 92.92 384.85 82.97 381.53" style="fill: rgb(206, 122, 99); transform-origin: 83.925px 392.235px;" id="elprdwdhfh1t" class="animable"></polygon><path d="M85.53,402.38a.22.22,0,0,1-.09-.24.2.2,0,0,1,.19-.16c.16,0,3.86-.41,5.1.6a1.15,1.15,0,0,1,.43.74.83.83,0,0,1-.37.88c-.55.3-1.72,0-2.77-.44A16.79,16.79,0,0,1,85.53,402.38Zm.77,0c1.49.89,3.63,1.81,4.27,1.43.08,0,.19-.14.15-.45a.61.61,0,0,0-.27-.45,1.25,1.25,0,0,0-.37-.22A10.25,10.25,0,0,0,86.3,402.39Z" style="fill: rgb(64, 123, 255); transform-origin: 88.3057px 403.109px;" id="elxy8stu08of" class="animable"></path><path d="M85.43,402.32a.2.2,0,0,1,0-.22c0-.1,1.28-2.29,2.75-2.7a1.65,1.65,0,0,1,1.27.14c.53.3.58.66.5.9-.24,1-3.08,2-4.29,2a.16.16,0,0,1-.09,0A.21.21,0,0,1,85.43,402.32Zm3.71-2.45a1.08,1.08,0,0,0-.81-.05,5.1,5.1,0,0,0-2.26,2.1c1.32-.16,3.29-1,3.49-1.61,0-.06,0-.21-.3-.4l-.12,0Z" style="fill: rgb(64, 123, 255); transform-origin: 87.6887px 400.889px;" id="eldu833i4lvg9" class="animable"></path><path d="M85.18,400.81l-9.25-4.05a.83.83,0,0,0-1,.26l-5,6.8a1.36,1.36,0,0,0,.28,1.89,2,2,0,0,0,.25.14c3.36,1.41,6.4,2.52,10.55,4.35,4.9,2.15,3.4,2.19,9.12,4.79,3.45,1.57,5.82-2.1,4.43-2.94-6.36-3.79-6.17-6.13-7.71-9.68A3.24,3.24,0,0,0,85.18,400.81Z" style="fill: rgb(38, 50, 56); transform-origin: 82.3159px 406.032px;" id="eliqp98x7jp1" class="animable"></path><path d="M154.79,164.77s6.85-2.1,5.13-5.23c-1.5-2.71-4,.56-4,.56Z" style="fill: rgb(38, 50, 56); transform-origin: 157.494px 161.618px;" id="el8ybzbyizv7w" class="animable"></path><g id="elqsldz7jn1n"><path d="M154.79,164.77s6.85-2.1,5.13-5.23c-1.5-2.71-4,.56-4,.56Z" style="opacity: 0.6; transform-origin: 157.494px 161.618px;" class="animable"></path></g><polygon points="149.87 187.72 148.54 194.06 139.11 190.84 141.93 183.56 149.87 187.72" style="fill: rgb(206, 122, 99); transform-origin: 144.49px 188.81px;" id="elokpsnhwuap" class="animable"></polygon><g id="elwqrx8sa1q1"><path d="M149.21,190.88a5.53,5.53,0,0,1-2.75-3.67l1.55-.47,1.86,1Z" style="opacity: 0.2; transform-origin: 148.165px 188.81px;" class="animable"></path></g><path d="M160.32,171.64c.06.57-.2,1.06-.58,1.09s-.76-.43-.79-1,.2-1.05.58-1.07S160.27,171.08,160.32,171.64Z" style="fill: rgb(38, 50, 56); transform-origin: 159.638px 171.695px;" id="el2o4y6yfn09h" class="animable"></path><path d="M159.24,173.42l3.21,4.21a4,4,0,0,1-3.54.58Z" style="fill: rgb(186, 77, 60); transform-origin: 160.68px 175.906px;" id="el9atbr2cqie5" class="animable"></path><path d="M137.72,171.08c.36,7.57.34,10.78,4.18,14.77,5.9,4.11,15.2,4,17.15-3.46,1.76-6.74.88-18-6.64-21.22a10.53,10.53,0,0,0-13.86,5.24A10.12,10.12,0,0,0,137.72,171.08Z" style="fill: rgb(206, 122, 99); transform-origin: 148.761px 174.411px;" id="el4tctaelhlwx" class="animable"></path><path d="M159.5,166.6a.32.32,0,0,0-.22.19,2.33,2.33,0,0,1-1.56,1.46.3.3,0,0,0-.24.35.32.32,0,0,0,.37.23,2.84,2.84,0,0,0,2-1.82.3.3,0,0,0-.17-.39h0A.37.37,0,0,0,159.5,166.6Z" style="fill: rgb(38, 50, 56); transform-origin: 158.673px 167.716px;" id="el3zw0f9q7iio" class="animable"></path><path d="M134.19,193.16l1.91-2.23a4.39,4.39,0,0,1,4.81-1.25l6.52,2.35a4.38,4.38,0,0,1,2.69,2.8l.74,2.33Z" style="fill: rgb(64, 123, 255); transform-origin: 142.525px 193.289px;" id="el3x4yc18vww" class="animable"></path><g id="elb1imx48ympo"><path d="M134.19,193.16l1.91-2.23a4.39,4.39,0,0,1,4.81-1.25l6.52,2.35a4.38,4.38,0,0,1,2.69,2.8l.74,2.33Z" style="fill: rgb(255, 255, 255); opacity: 0.5; transform-origin: 142.525px 193.289px;" class="animable"></path></g><path d="M148.12,250.44s22.34,55.87,27.93,75.23c4.56,15.75,13.77,64.33,13.77,64.33l-14,3.57s-12.17-47.71-17.46-63.24c-4.48-13.14-16-39.22-25.57-49.3-1.61-1.7-6.14-3.61-7.7-5.36-3.21-3.62-6.92-12.93-7.93-17.67-.46-2.16,0-8.83,0-8.83Z" style="fill: rgb(38, 50, 56); transform-origin: 153.388px 321.37px;" id="el48ba3l757pi" class="animable"></path><path d="M148.12,250.44s-5.34,16.95-7.65,22.39c-1.24,2.95-4.36,8.57-5.58,11.52-5.74,13.85-14.84,42.7-20.07,56.49-5.16,13.57-24.35,52.73-24.35,52.73L77.8,388s16.25-39.26,20.67-52.7c4.31-13.08,10.74-40,12.47-53.64.53-4.22.29-12.76.7-17,.37-3.9,2.33-15.5,2.33-15.5Z" style="fill: rgb(38, 50, 56); transform-origin: 112.96px 321.365px;" id="el25lmb08yqpg" class="animable"></path><path d="M113.63,250.53l36.63,5.11L158.68,205a7.26,7.26,0,0,0-5.35-8.23l-16.23-4.21a10.78,10.78,0,0,0-13.27,8.26Z" style="fill: rgb(64, 123, 255); transform-origin: 136.205px 223.927px;" id="elnf3lbr4u4h" class="animable"></path><g id="eltooc0cskec8"><polygon points="155.37 224.91 156.99 215.16 150.31 209.5 155.37 224.91" style="opacity: 0.2; transform-origin: 153.65px 217.205px;" class="animable"></polygon></g><polygon points="77.81 384.54 75.93 388.92 90.56 395.67 92.68 391.54 77.81 384.54" style="fill: rgb(64, 123, 255); transform-origin: 84.305px 390.105px;" id="el5c5vjx11pqw" class="animable"></polygon><polygon points="174.06 391.11 175.39 395.68 190.97 391.61 190 387.07 174.06 391.11" style="fill: rgb(64, 123, 255); transform-origin: 182.515px 391.375px;" id="elimbtxejge1" class="animable"></polygon><path d="M153.89,176s2-2.56.54-6.69,7-12.76,1.63-15.3c-3.34-1.58-4.31,2.87-4.31,2.87s-2.05-3.19-5-1.86c-1.7.77-1.25,3-1.25,3s-12.06,1.91-9.55,13.09a15.9,15.9,0,0,0,4.48,13s4.35-1.59,7.93.64C148.38,184.76,148.82,180.15,153.89,176Z" style="fill: rgb(38, 50, 56); transform-origin: 146.736px 169.21px;" id="ele7f8prj3zlg" class="animable"></path><path d="M137.08,172.82s-3.79-3.06-4.09-6.2S136,168.79,137.08,172.82Z" style="fill: rgb(38, 50, 56); transform-origin: 135.025px 169.245px;" id="eloit2ab0y3" class="animable"></path><path d="M153.28,173.14a5.85,5.85,0,0,1,1.94,4.06c.08,2.06-1.92,2.6-3.64,1.62s-3.48-3-2.73-4.88A2.7,2.7,0,0,1,153.28,173.14Z" style="fill: rgb(206, 122, 99); transform-origin: 151.947px 175.801px;" id="elbd1j32cmyr" class="animable"></path><g id="eldozpztj8ulh"><path d="M119.18,264.55c1.46,11,8.81,21.7,12.92,27,1-2.66,1.93-5.08,2.79-7.17C122.39,274.22,119.18,264.55,119.18,264.55Z" style="opacity: 0.6; transform-origin: 127.035px 278.05px;" class="animable"></path></g><path d="M156.3,200.44s9.25,16.12,13.73,20.62c3.88,3.88,18.84,12.87,18.84,12.87l5.08-.09a2.61,2.61,0,0,1,2.13,1h0a2.64,2.64,0,0,0,1.22.89l.44.16a2.61,2.61,0,0,1,1.73,2.83l-.3,2.18a2.62,2.62,0,0,1-1.81,2.13l-4.09,1.29a2.6,2.6,0,0,1-2.47-.5l-5.07-4.3s-18.72-8-23.66-12.56c-3.71-3.39-10.95-16.84-10.95-16.84Z" style="fill: rgb(206, 122, 99); transform-origin: 175.308px 222.44px;" id="elpa4ogqaooo" class="animable"></path><path d="M157.79,199.14l9.9,12.94L155,219.77l-7.75-13.48a5.44,5.44,0,0,1,1.41-7l1.47-1.12A5.44,5.44,0,0,1,157.79,199.14Z" style="fill: rgb(64, 123, 255); transform-origin: 157.114px 208.394px;" id="elemebsj6d78q" class="animable"></path></g><defs>     <filter id="active" height="200%">         <feMorphology in="SourceAlpha" result="DILATED" operator="dilate" radius="2"></feMorphology>                <feFlood flood-color="#32DFEC" flood-opacity="1" result="PINK"></feFlood>        <feComposite in="PINK" in2="DILATED" operator="in" result="OUTLINE"></feComposite>        <feMerge>            <feMergeNode in="OUTLINE"></feMergeNode>            <feMergeNode in="SourceGraphic"></feMergeNode>        </feMerge>    </filter>    <filter id="hover" height="200%">        <feMorphology in="SourceAlpha" result="DILATED" operator="dilate" radius="2"></feMorphology>                <feFlood flood-color="#ff0000" flood-opacity="0.5" result="PINK"></feFlood>        <feComposite in="PINK" in2="DILATED" operator="in" result="OUTLINE"></feComposite>        <feMerge>            <feMergeNode in="OUTLINE"></feMergeNode>            <feMergeNode in="SourceGraphic"></feMergeNode>        </feMerge>            <feColorMatrix type="matrix" values="0   0   0   0   0                0   1   0   0   0                0   0   0   0   0                0   0   0   1   0 "></feColorMatrix>    </filter></defs></svg>